<?xml version="1.0" encoding="UTF-8" standalone="no"?>
<!DOCTYPE svg PUBLIC "-//W3C//DTD SVG 1.1//EN"
 "http://www.w3.org/Graphics/SVG/1.1/DTD/svg11.dtd">
<!-- Generated by graphviz version 2.40.1 (20161225.0304)
 -->
<!-- Title: %3 Pages: 1 -->
<svg width="1560pt" height="620pt"
 viewBox="0.00 0.00 1559.99 620.00" xmlns="http://www.w3.org/2000/svg" xmlns:xlink="http://www.w3.org/1999/xlink">
<g id="graph0" class="graph" transform="scale(1 1) rotate(0) translate(4 616)">
<title>%3</title>
<polygon fill="#ffffff" stroke="transparent" points="-4,4 -4,-616 1555.9876,-616 1555.9876,4 -4,4"/>
<!-- [root] aws_eip.server_vpn -->
<g id="node1" class="node">
<title>[root] aws_eip.server_vpn</title>
<polygon fill="none" stroke="#000000" points="642.905,-396 515.7512,-396 515.7512,-360 642.905,-360 642.905,-396"/>
<text text-anchor="middle" x="579.3281" y="-373.8" font-family="Times,serif" font-size="14.00" fill="#000000">aws_eip.server_vpn</text>
</g>
<!-- [root] aws_instance.server_vpn -->
<g id="node2" class="node">
<title>[root] aws_instance.server_vpn</title>
<polygon fill="none" stroke="#000000" points="877.6703,-324 720.9859,-324 720.9859,-288 877.6703,-288 877.6703,-324"/>
<text text-anchor="middle" x="799.3281" y="-301.8" font-family="Times,serif" font-size="14.00" fill="#000000">aws_instance.server_vpn</text>
</g>
<!-- [root] aws_eip.server_vpn&#45;&gt;[root] aws_instance.server_vpn -->
<g id="edge1" class="edge">
<title>[root] aws_eip.server_vpn&#45;&gt;[root] aws_instance.server_vpn</title>
<path fill="none" stroke="#000000" d="M634.5594,-359.9243C664.8962,-349.9959 702.6946,-337.6255 734.4335,-327.2382"/>
<polygon fill="#000000" stroke="#000000" points="735.6587,-330.52 744.074,-324.0831 733.4814,-323.8672 735.6587,-330.52"/>
</g>
<!-- [root] aws_security_group.vpn_sg -->
<g id="node5" class="node">
<title>[root] aws_security_group.vpn_sg</title>
<polygon fill="none" stroke="#000000" points="834.5285,-252 662.1276,-252 662.1276,-216 834.5285,-216 834.5285,-252"/>
<text text-anchor="middle" x="748.3281" y="-229.8" font-family="Times,serif" font-size="14.00" fill="#000000">aws_security_group.vpn_sg</text>
</g>
<!-- [root] aws_instance.server_vpn&#45;&gt;[root] aws_security_group.vpn_sg -->
<g id="edge2" class="edge">
<title>[root] aws_instance.server_vpn&#45;&gt;[root] aws_security_group.vpn_sg</title>
<path fill="none" stroke="#000000" d="M786.4586,-287.8314C780.6446,-279.6232 773.6585,-269.7606 767.2635,-260.7323"/>
<polygon fill="#000000" stroke="#000000" points="770.0071,-258.5505 761.3708,-252.4133 764.2949,-262.5966 770.0071,-258.5505"/>
</g>
<!-- [root] aws_subnet.vpn&#45;1a -->
<g id="node6" class="node">
<title>[root] aws_subnet.vpn&#45;1a</title>
<polygon fill="none" stroke="#000000" points="976.0287,-252 852.6275,-252 852.6275,-216 976.0287,-216 976.0287,-252"/>
<text text-anchor="middle" x="914.3281" y="-229.8" font-family="Times,serif" font-size="14.00" fill="#000000">aws_subnet.vpn&#45;1a</text>
</g>
<!-- [root] aws_instance.server_vpn&#45;&gt;[root] aws_subnet.vpn&#45;1a -->
<g id="edge3" class="edge">
<title>[root] aws_instance.server_vpn&#45;&gt;[root] aws_subnet.vpn&#45;1a</title>
<path fill="none" stroke="#000000" d="M828.3474,-287.8314C843.0567,-278.6221 861.0925,-267.3301 876.8403,-257.4706"/>
<polygon fill="#000000" stroke="#000000" points="878.6995,-260.436 885.318,-252.1628 874.9848,-254.5029 878.6995,-260.436"/>
</g>
<!-- [root] data.aws_ami.ubuntu -->
<g id="node9" class="node">
<title>[root] data.aws_ami.ubuntu</title>
<polygon fill="none" stroke="#000000" points="1128.8008,-252 993.8554,-252 993.8554,-216 1128.8008,-216 1128.8008,-252"/>
<text text-anchor="middle" x="1061.3281" y="-229.8" font-family="Times,serif" font-size="14.00" fill="#000000">data.aws_ami.ubuntu</text>
</g>
<!-- [root] aws_instance.server_vpn&#45;&gt;[root] data.aws_ami.ubuntu -->
<g id="edge4" class="edge">
<title>[root] aws_instance.server_vpn&#45;&gt;[root] data.aws_ami.ubuntu</title>
<path fill="none" stroke="#000000" d="M865.1036,-287.9243C901.6991,-277.8675 947.4121,-265.3052 985.5072,-254.8363"/>
<polygon fill="#000000" stroke="#000000" points="986.8105,-258.108 995.5255,-252.0831 984.9555,-251.3582 986.8105,-258.108"/>
</g>
<!-- [root] var.ec2_provisioning_ssh_connection_key_path -->
<g id="node11" class="node">
<title>[root] var.ec2_provisioning_ssh_connection_key_path</title>
<ellipse fill="none" stroke="#000000" cx="1349.3281" cy="-234" rx="202.8191" ry="18"/>
<text text-anchor="middle" x="1349.3281" y="-229.8" font-family="Times,serif" font-size="14.00" fill="#000000">[root] var.ec2_provisioning_ssh_connection_key_path</text>
</g>
<!-- [root] aws_instance.server_vpn&#45;&gt;[root] var.ec2_provisioning_ssh_connection_key_path -->
<g id="edge5" class="edge">
<title>[root] aws_instance.server_vpn&#45;&gt;[root] var.ec2_provisioning_ssh_connection_key_path</title>
<path fill="none" stroke="#000000" d="M877.5456,-295.7606C968.1903,-283.8944 1118.7353,-264.1867 1225.3635,-250.2281"/>
<polygon fill="#000000" stroke="#000000" points="1226.0807,-253.6642 1235.5417,-248.8957 1225.172,-246.7234 1226.0807,-253.6642"/>
</g>
<!-- [root] var.ec2_ssh_key_name -->
<g id="node12" class="node">
<title>[root] var.ec2_ssh_key_name</title>
<ellipse fill="none" stroke="#000000" cx="529.3281" cy="-234" rx="114.4674" ry="18"/>
<text text-anchor="middle" x="529.3281" y="-229.8" font-family="Times,serif" font-size="14.00" fill="#000000">[root] var.ec2_ssh_key_name</text>
</g>
<!-- [root] aws_instance.server_vpn&#45;&gt;[root] var.ec2_ssh_key_name -->
<g id="edge6" class="edge">
<title>[root] aws_instance.server_vpn&#45;&gt;[root] var.ec2_ssh_key_name</title>
<path fill="none" stroke="#000000" d="M731.5442,-287.9243C690.56,-276.9952 638.4793,-263.107 597.4367,-252.1623"/>
<polygon fill="#000000" stroke="#000000" points="598.0862,-248.7132 587.522,-249.5184 596.2825,-255.4769 598.0862,-248.7132"/>
</g>
<!-- [root] aws_internet_gateway.vpn -->
<g id="node3" class="node">
<title>[root] aws_internet_gateway.vpn</title>
<polygon fill="none" stroke="#000000" points="542.5919,-324 378.0643,-324 378.0643,-288 542.5919,-288 542.5919,-324"/>
<text text-anchor="middle" x="460.3281" y="-301.8" font-family="Times,serif" font-size="14.00" fill="#000000">aws_internet_gateway.vpn</text>
</g>
<!-- [root] aws_vpc.vpn -->
<g id="node8" class="node">
<title>[root] aws_vpc.vpn</title>
<polygon fill="none" stroke="#000000" points="787.3157,-180 697.3404,-180 697.3404,-144 787.3157,-144 787.3157,-180"/>
<text text-anchor="middle" x="742.3281" y="-157.8" font-family="Times,serif" font-size="14.00" fill="#000000">aws_vpc.vpn</text>
</g>
<!-- [root] aws_internet_gateway.vpn&#45;&gt;[root] aws_vpc.vpn -->
<g id="edge7" class="edge">
<title>[root] aws_internet_gateway.vpn&#45;&gt;[root] aws_vpc.vpn</title>
<path fill="none" stroke="#000000" d="M436.4994,-287.9476C414.2239,-268.9124 387.0642,-238.607 406.3281,-216 424.3156,-194.8908 596.6689,-175.6974 687.2719,-166.9652"/>
<polygon fill="#000000" stroke="#000000" points="687.7467,-170.4359 697.3695,-166.0027 687.0824,-163.4675 687.7467,-170.4359"/>
</g>
<!-- [root] aws_route.internet_access_vpn -->
<g id="node4" class="node">
<title>[root] aws_route.internet_access_vpn</title>
<polygon fill="none" stroke="#000000" points="660.3775,-468 470.2787,-468 470.2787,-432 660.3775,-432 660.3775,-468"/>
<text text-anchor="middle" x="565.3281" y="-445.8" font-family="Times,serif" font-size="14.00" fill="#000000">aws_route.internet_access_vpn</text>
</g>
<!-- [root] aws_route.internet_access_vpn&#45;&gt;[root] aws_internet_gateway.vpn -->
<g id="edge8" class="edge">
<title>[root] aws_route.internet_access_vpn&#45;&gt;[root] aws_internet_gateway.vpn</title>
<path fill="none" stroke="#000000" d="M541.9054,-431.9372C530.248,-422.1594 516.5103,-409.3647 506.3281,-396 491.725,-376.8326 479.5526,-352.3323 471.405,-333.7354"/>
<polygon fill="#000000" stroke="#000000" points="474.5461,-332.1781 467.4113,-324.3458 468.1046,-334.918 474.5461,-332.1781"/>
</g>
<!-- [root] aws_security_group.vpn_sg&#45;&gt;[root] aws_vpc.vpn -->
<g id="edge9" class="edge">
<title>[root] aws_security_group.vpn_sg&#45;&gt;[root] aws_vpc.vpn</title>
<path fill="none" stroke="#000000" d="M746.814,-215.8314C746.1723,-208.131 745.4093,-198.9743 744.6961,-190.4166"/>
<polygon fill="#000000" stroke="#000000" points="748.181,-190.088 743.8625,-180.4133 741.2052,-190.6694 748.181,-190.088"/>
</g>
<!-- [root] var.authorized_ips_range -->
<g id="node13" class="node">
<title>[root] var.authorized_ips_range</title>
<ellipse fill="none" stroke="#000000" cx="384.3281" cy="-162" rx="121.6917" ry="18"/>
<text text-anchor="middle" x="384.3281" y="-157.8" font-family="Times,serif" font-size="14.00" fill="#000000">[root] var.authorized_ips_range</text>
</g>
<!-- [root] aws_security_group.vpn_sg&#45;&gt;[root] var.authorized_ips_range -->
<g id="edge10" class="edge">
<title>[root] aws_security_group.vpn_sg&#45;&gt;[root] var.authorized_ips_range</title>
<path fill="none" stroke="#000000" d="M662.0652,-216.937C603.1397,-205.2814 525.4969,-189.9235 467.2886,-178.4098"/>
<polygon fill="#000000" stroke="#000000" points="467.8779,-174.9586 457.3888,-176.4516 466.5196,-181.8255 467.8779,-174.9586"/>
</g>
<!-- [root] aws_subnet.vpn&#45;1a&#45;&gt;[root] aws_vpc.vpn -->
<g id="edge11" class="edge">
<title>[root] aws_subnet.vpn&#45;1a&#45;&gt;[root] aws_vpc.vpn</title>
<path fill="none" stroke="#000000" d="M870.9252,-215.8314C847.819,-206.159 819.2242,-194.1891 794.8704,-183.9944"/>
<polygon fill="#000000" stroke="#000000" points="795.9948,-180.6709 785.4188,-180.038 793.2918,-187.128 795.9948,-180.6709"/>
</g>
<!-- [root] aws_subnet.vpn&#45;1b -->
<g id="node7" class="node">
<title>[root] aws_subnet.vpn&#45;1b</title>
<polygon fill="none" stroke="#000000" points="451.8154,-468 326.8408,-468 326.8408,-432 451.8154,-432 451.8154,-468"/>
<text text-anchor="middle" x="389.3281" y="-445.8" font-family="Times,serif" font-size="14.00" fill="#000000">aws_subnet.vpn&#45;1b</text>
</g>
<!-- [root] aws_subnet.vpn&#45;1b&#45;&gt;[root] aws_vpc.vpn -->
<g id="edge12" class="edge">
<title>[root] aws_subnet.vpn&#45;1b&#45;&gt;[root] aws_vpc.vpn</title>
<path fill="none" stroke="#000000" d="M382.2392,-431.7722C365.9306,-386.4379 331.8792,-268.4832 396.3281,-216 418.5365,-197.9148 595.5174,-177.196 687.3886,-167.5195"/>
<polygon fill="#000000" stroke="#000000" points="687.7672,-170.9991 697.3492,-166.4785 687.0395,-164.037 687.7672,-170.9991"/>
</g>
<!-- [root] provider.aws -->
<g id="node10" class="node">
<title>[root] provider.aws</title>
<polygon fill="none" stroke="#000000" points="936.3281,-108 857.7198,-90 936.3281,-72 1014.9364,-90 936.3281,-108"/>
<text text-anchor="middle" x="936.3281" y="-85.8" font-family="Times,serif" font-size="14.00" fill="#000000">provider.aws</text>
</g>
<!-- [root] aws_vpc.vpn&#45;&gt;[root] provider.aws -->
<g id="edge13" class="edge">
<title>[root] aws_vpc.vpn&#45;&gt;[root] provider.aws</title>
<path fill="none" stroke="#000000" d="M787.3232,-145.3008C820.3923,-133.0277 864.9105,-116.5055 896.6543,-104.7243"/>
<polygon fill="#000000" stroke="#000000" points="897.9115,-107.991 906.0689,-101.2302 895.4759,-101.4284 897.9115,-107.991"/>
</g>
<!-- [root] var.vpc_cidr_block -->
<g id="node14" class="node">
<title>[root] var.vpc_cidr_block</title>
<ellipse fill="none" stroke="#000000" cx="739.3281" cy="-90" rx="100.4606" ry="18"/>
<text text-anchor="middle" x="739.3281" y="-85.8" font-family="Times,serif" font-size="14.00" fill="#000000">[root] var.vpc_cidr_block</text>
</g>
<!-- [root] aws_vpc.vpn&#45;&gt;[root] var.vpc_cidr_block -->
<g id="edge14" class="edge">
<title>[root] aws_vpc.vpn&#45;&gt;[root] var.vpc_cidr_block</title>
<path fill="none" stroke="#000000" d="M741.5711,-143.8314C741.2502,-136.131 740.8687,-126.9743 740.5121,-118.4166"/>
<polygon fill="#000000" stroke="#000000" points="744.0087,-118.2589 740.0953,-108.4133 737.0147,-118.5503 744.0087,-118.2589"/>
</g>
<!-- [root] data.aws_ami.ubuntu&#45;&gt;[root] provider.aws -->
<g id="edge15" class="edge">
<title>[root] data.aws_ami.ubuntu&#45;&gt;[root] provider.aws</title>
<path fill="none" stroke="#000000" d="M1003.8286,-215.9135C985.8703,-207.6252 967.5761,-195.9836 955.3281,-180 941.868,-162.4347 937.4128,-137.5147 936.1576,-118.3492"/>
<polygon fill="#000000" stroke="#000000" points="939.6447,-117.9557 935.7483,-108.1034 932.6503,-118.2352 939.6447,-117.9557"/>
</g>
<!-- [root] var.ubuntu_version -->
<g id="node15" class="node">
<title>[root] var.ubuntu_version</title>
<ellipse fill="none" stroke="#000000" cx="1064.3281" cy="-162" rx="100.4865" ry="18"/>
<text text-anchor="middle" x="1064.3281" y="-157.8" font-family="Times,serif" font-size="14.00" fill="#000000">[root] var.ubuntu_version</text>
</g>
<!-- [root] data.aws_ami.ubuntu&#45;&gt;[root] var.ubuntu_version -->
<g id="edge16" class="edge">
<title>[root] data.aws_ami.ubuntu&#45;&gt;[root] var.ubuntu_version</title>
<path fill="none" stroke="#000000" d="M1062.0851,-215.8314C1062.406,-208.131 1062.7875,-198.9743 1063.1441,-190.4166"/>
<polygon fill="#000000" stroke="#000000" points="1066.6414,-190.5503 1063.5609,-180.4133 1059.6475,-190.2589 1066.6414,-190.5503"/>
</g>
<!-- [root] var.region -->
<g id="node20" class="node">
<title>[root] var.region</title>
<ellipse fill="none" stroke="#000000" cx="936.3281" cy="-18" rx="68.1287" ry="18"/>
<text text-anchor="middle" x="936.3281" y="-13.8" font-family="Times,serif" font-size="14.00" fill="#000000">[root] var.region</text>
</g>
<!-- [root] provider.aws&#45;&gt;[root] var.region -->
<g id="edge26" class="edge">
<title>[root] provider.aws&#45;&gt;[root] var.region</title>
<path fill="none" stroke="#000000" d="M936.3281,-71.8314C936.3281,-64.131 936.3281,-54.9743 936.3281,-46.4166"/>
<polygon fill="#000000" stroke="#000000" points="939.8282,-46.4132 936.3281,-36.4133 932.8282,-46.4133 939.8282,-46.4132"/>
</g>
<!-- [root] meta.count&#45;boundary (count boundary fixup) -->
<g id="node16" class="node">
<title>[root] meta.count&#45;boundary (count boundary fixup)</title>
<ellipse fill="none" stroke="#000000" cx="295.3281" cy="-522" rx="191.6931" ry="18"/>
<text text-anchor="middle" x="295.3281" y="-517.8" font-family="Times,serif" font-size="14.00" fill="#000000">[root] meta.count&#45;boundary (count boundary fixup)</text>
</g>
<!-- [root] meta.count&#45;boundary (count boundary fixup)&#45;&gt;[root] aws_route.internet_access_vpn -->
<g id="edge17" class="edge">
<title>[root] meta.count&#45;boundary (count boundary fixup)&#45;&gt;[root] aws_route.internet_access_vpn</title>
<path fill="none" stroke="#000000" d="M359.3143,-504.937C397.7795,-494.6796 446.9972,-481.5549 487.6796,-470.7063"/>
<polygon fill="#000000" stroke="#000000" points="488.7973,-474.0306 497.5578,-468.0721 486.9936,-467.267 488.7973,-474.0306"/>
</g>
<!-- [root] meta.count&#45;boundary (count boundary fixup)&#45;&gt;[root] aws_subnet.vpn&#45;1b -->
<g id="edge18" class="edge">
<title>[root] meta.count&#45;boundary (count boundary fixup)&#45;&gt;[root] aws_subnet.vpn&#45;1b</title>
<path fill="none" stroke="#000000" d="M319.0483,-503.8314C330.7375,-494.8779 344.9969,-483.9558 357.609,-474.2955"/>
<polygon fill="#000000" stroke="#000000" points="359.805,-477.0222 365.6155,-468.1628 355.5484,-471.4651 359.805,-477.0222"/>
</g>
<!-- [root] output.authorized_ips -->
<g id="node17" class="node">
<title>[root] output.authorized_ips</title>
<ellipse fill="none" stroke="#000000" cx="109.3281" cy="-378" rx="109.1565" ry="18"/>
<text text-anchor="middle" x="109.3281" y="-373.8" font-family="Times,serif" font-size="14.00" fill="#000000">[root] output.authorized_ips</text>
</g>
<!-- [root] meta.count&#45;boundary (count boundary fixup)&#45;&gt;[root] output.authorized_ips -->
<g id="edge19" class="edge">
<title>[root] meta.count&#45;boundary (count boundary fixup)&#45;&gt;[root] output.authorized_ips</title>
<path fill="none" stroke="#000000" d="M167.8362,-508.5595C116.6066,-500.2899 65.9478,-487.4373 50.3281,-468 33.3384,-446.8578 54.5907,-420.7522 76.1761,-402.1113"/>
<polygon fill="#000000" stroke="#000000" points="78.5814,-404.6646 84.0735,-395.6044 74.1301,-399.2621 78.5814,-404.6646"/>
</g>
<!-- [root] output.ec2_vpn_public_ip -->
<g id="node18" class="node">
<title>[root] output.ec2_vpn_public_ip</title>
<ellipse fill="none" stroke="#000000" cx="184.3281" cy="-450" rx="125.1006" ry="18"/>
<text text-anchor="middle" x="184.3281" y="-445.8" font-family="Times,serif" font-size="14.00" fill="#000000">[root] output.ec2_vpn_public_ip</text>
</g>
<!-- [root] meta.count&#45;boundary (count boundary fixup)&#45;&gt;[root] output.ec2_vpn_public_ip -->
<g id="edge20" class="edge">
<title>[root] meta.count&#45;boundary (count boundary fixup)&#45;&gt;[root] output.ec2_vpn_public_ip</title>
<path fill="none" stroke="#000000" d="M267.6044,-504.0171C253.3259,-494.7553 235.7426,-483.35 220.4182,-473.4098"/>
<polygon fill="#000000" stroke="#000000" points="221.9927,-470.2593 211.6984,-467.7537 218.1834,-476.132 221.9927,-470.2593"/>
</g>
<!-- [root] output.authorized_ips&#45;&gt;[root] var.authorized_ips_range -->
<g id="edge21" class="edge">
<title>[root] output.authorized_ips&#45;&gt;[root] var.authorized_ips_range</title>
<path fill="none" stroke="#000000" d="M131.8325,-360.3238C180.8821,-321.7976 297.4958,-230.2029 353.4005,-186.2922"/>
<polygon fill="#000000" stroke="#000000" points="355.8105,-188.8499 361.5127,-179.9204 351.4866,-183.3449 355.8105,-188.8499"/>
</g>
<!-- [root] output.ec2_vpn_public_ip&#45;&gt;[root] aws_eip.server_vpn -->
<g id="edge22" class="edge">
<title>[root] output.ec2_vpn_public_ip&#45;&gt;[root] aws_eip.server_vpn</title>
<path fill="none" stroke="#000000" d="M261.8961,-435.861C332.564,-422.9798 436.2015,-404.0889 505.6318,-391.4332"/>
<polygon fill="#000000" stroke="#000000" points="506.4092,-394.8493 515.6194,-389.6127 505.1539,-387.9628 506.4092,-394.8493"/>
</g>
<!-- [root] provider.aws (close) -->
<g id="node19" class="node">
<title>[root] provider.aws (close)</title>
<ellipse fill="none" stroke="#000000" cx="609.3281" cy="-522" rx="104.3276" ry="18"/>
<text text-anchor="middle" x="609.3281" y="-517.8" font-family="Times,serif" font-size="14.00" fill="#000000">[root] provider.aws (close)</text>
</g>
<!-- [root] provider.aws (close)&#45;&gt;[root] aws_eip.server_vpn -->
<g id="edge23" class="edge">
<title>[root] provider.aws (close)&#45;&gt;[root] aws_eip.server_vpn</title>
<path fill="none" stroke="#000000" d="M637.6005,-504.5382C649.775,-495.3299 662.7143,-482.8503 669.3281,-468 675.8375,-453.384 677.2113,-445.9232 669.3281,-432 662.0336,-419.1166 650.3036,-408.9716 637.6882,-401.1245"/>
<polygon fill="#000000" stroke="#000000" points="639.2717,-397.9978 628.8568,-396.0537 635.7861,-404.0683 639.2717,-397.9978"/>
</g>
<!-- [root] provider.aws (close)&#45;&gt;[root] aws_route.internet_access_vpn -->
<g id="edge24" class="edge">
<title>[root] provider.aws (close)&#45;&gt;[root] aws_route.internet_access_vpn</title>
<path fill="none" stroke="#000000" d="M598.225,-503.8314C593.2607,-495.7079 587.3059,-485.9637 581.8353,-477.0118"/>
<polygon fill="#000000" stroke="#000000" points="584.7817,-475.121 576.5806,-468.4133 578.8087,-478.7712 584.7817,-475.121"/>
</g>
<!-- [root] provider.aws (close)&#45;&gt;[root] aws_subnet.vpn&#45;1b -->
<g id="edge25" class="edge">
<title>[root] provider.aws (close)&#45;&gt;[root] aws_subnet.vpn&#45;1b</title>
<path fill="none" stroke="#000000" d="M560.503,-506.0209C529.2794,-495.8022 488.4137,-482.428 454.4421,-471.31"/>
<polygon fill="#000000" stroke="#000000" points="455.192,-467.8728 444.5993,-468.0888 453.0146,-474.5256 455.192,-467.8728"/>
</g>
<!-- [root] provisioner.file (close) -->
<g id="node21" class="node">
<title>[root] provisioner.file (close)</title>
<ellipse fill="none" stroke="#000000" cx="773.3281" cy="-378" rx="112.0625" ry="18"/>
<text text-anchor="middle" x="773.3281" y="-373.8" font-family="Times,serif" font-size="14.00" fill="#000000">[root] provisioner.file (close)</text>
</g>
<!-- [root] provisioner.file (close)&#45;&gt;[root] aws_instance.server_vpn -->
<g id="edge27" class="edge">
<title>[root] provisioner.file (close)&#45;&gt;[root] aws_instance.server_vpn</title>
<path fill="none" stroke="#000000" d="M779.889,-359.8314C782.7308,-351.9617 786.1218,-342.5712 789.27,-333.8533"/>
<polygon fill="#000000" stroke="#000000" points="792.5743,-335.0076 792.6789,-324.4133 785.9904,-332.63 792.5743,-335.0076"/>
</g>
<!-- [root] provisioner.remote&#45;exec (close) -->
<g id="node22" class="node">
<title>[root] provisioner.remote&#45;exec (close)</title>
<ellipse fill="none" stroke="#000000" cx="913.3281" cy="-522" rx="144.3512" ry="18"/>
<text text-anchor="middle" x="913.3281" y="-517.8" font-family="Times,serif" font-size="14.00" fill="#000000">[root] provisioner.remote&#45;exec (close)</text>
</g>
<!-- [root] provisioner.remote&#45;exec (close)&#45;&gt;[root] aws_instance.server_vpn -->
<g id="edge28" class="edge">
<title>[root] provisioner.remote&#45;exec (close)&#45;&gt;[root] aws_instance.server_vpn</title>
<path fill="none" stroke="#000000" d="M916.1495,-503.9395C920.1417,-472.0054 923.9753,-404.7289 894.3281,-360 885.7302,-347.0283 872.888,-336.8251 859.4043,-328.9482"/>
<polygon fill="#000000" stroke="#000000" points="860.9466,-325.8029 850.4892,-324.102 857.6035,-331.953 860.9466,-325.8029"/>
</g>
<!-- [root] root -->
<g id="node23" class="node">
<title>[root] root</title>
<ellipse fill="none" stroke="#000000" cx="675.3281" cy="-594" rx="46.8976" ry="18"/>
<text text-anchor="middle" x="675.3281" y="-589.8" font-family="Times,serif" font-size="14.00" fill="#000000">[root] root</text>
</g>
<!-- [root] root&#45;&gt;[root] meta.count&#45;boundary (count boundary fixup) -->
<g id="edge29" class="edge">
<title>[root] root&#45;&gt;[root] meta.count&#45;boundary (count boundary fixup)</title>
<path fill="none" stroke="#000000" d="M633.2095,-586.0196C575.0216,-574.9946 468.4065,-554.7938 390.4537,-540.0238"/>
<polygon fill="#000000" stroke="#000000" points="391.0917,-536.5825 380.6149,-538.1596 389.7885,-543.4601 391.0917,-536.5825"/>
</g>
<!-- [root] root&#45;&gt;[root] provider.aws (close) -->
<g id="edge30" class="edge">
<title>[root] root&#45;&gt;[root] provider.aws (close)</title>
<path fill="none" stroke="#000000" d="M659.687,-576.937C651.626,-568.1431 641.633,-557.2418 632.6792,-547.4739"/>
<polygon fill="#000000" stroke="#000000" points="635.1152,-544.9518 625.7779,-539.9453 629.9551,-549.6819 635.1152,-544.9518"/>
</g>
<!-- [root] root&#45;&gt;[root] provisioner.file (close) -->
<g id="edge31" class="edge">
<title>[root] root&#45;&gt;[root] provisioner.file (close)</title>
<path fill="none" stroke="#000000" d="M693.4583,-576.937C703.1698,-566.9576 714.675,-553.6627 722.3281,-540 746.7077,-496.4761 761.1385,-439.7228 768.1221,-406.2371"/>
<polygon fill="#000000" stroke="#000000" points="771.5945,-406.7223 770.131,-396.229 764.7314,-405.3446 771.5945,-406.7223"/>
</g>
<!-- [root] root&#45;&gt;[root] provisioner.remote&#45;exec (close) -->
<g id="edge32" class="edge">
<title>[root] root&#45;&gt;[root] provisioner.remote&#45;exec (close)</title>
<path fill="none" stroke="#000000" d="M712.2545,-582.829C748.5487,-571.8492 804.7026,-554.8615 848.4532,-541.626"/>
<polygon fill="#000000" stroke="#000000" points="849.5949,-544.9373 858.1531,-538.6916 847.568,-538.2372 849.5949,-544.9373"/>
</g>
</g>
</svg>
