<?xml version="1.0" encoding="UTF-8" standalone="no"?>
<!DOCTYPE svg PUBLIC "-//W3C//DTD SVG 1.1//EN"
 "http://www.w3.org/Graphics/SVG/1.1/DTD/svg11.dtd">
<!-- Generated by graphviz version 2.40.1 (20161225.0304)
 -->
<!-- Title: %3 Pages: 1 -->
<svg width="1683pt" height="548pt"
 viewBox="0.00 0.00 1683.08 548.00" xmlns="http://www.w3.org/2000/svg" xmlns:xlink="http://www.w3.org/1999/xlink">
<g id="graph0" class="graph" transform="scale(1 1) rotate(0) translate(4 544)">
<title>%3</title>
<polygon fill="#ffffff" stroke="transparent" points="-4,4 -4,-544 1679.0836,-544 1679.0836,4 -4,4"/>
<!-- [root] aws_eip.server_vpn -->
<g id="node1" class="node">
<title>[root] aws_eip.server_vpn</title>
<polygon fill="none" stroke="#000000" points="763.427,-396 636.2732,-396 636.2732,-360 763.427,-360 763.427,-396"/>
<text text-anchor="middle" x="699.8501" y="-373.8" font-family="Times,serif" font-size="14.00" fill="#000000">aws_eip.server_vpn</text>
</g>
<!-- [root] aws_instance.server_vpn -->
<g id="node2" class="node">
<title>[root] aws_instance.server_vpn</title>
<polygon fill="none" stroke="#000000" points="1025.1923,-324 868.5079,-324 868.5079,-288 1025.1923,-288 1025.1923,-324"/>
<text text-anchor="middle" x="946.8501" y="-301.8" font-family="Times,serif" font-size="14.00" fill="#000000">aws_instance.server_vpn</text>
</g>
<!-- [root] aws_eip.server_vpn&#45;&gt;[root] aws_instance.server_vpn -->
<g id="edge1" class="edge">
<title>[root] aws_eip.server_vpn&#45;&gt;[root] aws_instance.server_vpn</title>
<path fill="none" stroke="#000000" d="M761.8598,-359.9243C796.2134,-349.9103 839.0894,-337.412 874.9113,-326.97"/>
<polygon fill="#000000" stroke="#000000" points="876.1939,-330.2419 884.8149,-324.0831 874.2349,-323.5216 876.1939,-330.2419"/>
</g>
<!-- [root] aws_security_group.vpn_sg -->
<g id="node5" class="node">
<title>[root] aws_security_group.vpn_sg</title>
<polygon fill="none" stroke="#000000" points="870.0506,-252 697.6496,-252 697.6496,-216 870.0506,-216 870.0506,-252"/>
<text text-anchor="middle" x="783.8501" y="-229.8" font-family="Times,serif" font-size="14.00" fill="#000000">aws_security_group.vpn_sg</text>
</g>
<!-- [root] aws_instance.server_vpn&#45;&gt;[root] aws_security_group.vpn_sg -->
<g id="edge2" class="edge">
<title>[root] aws_instance.server_vpn&#45;&gt;[root] aws_security_group.vpn_sg</title>
<path fill="none" stroke="#000000" d="M905.7183,-287.8314C883.918,-278.2018 856.9623,-266.295 833.9497,-256.1299"/>
<polygon fill="#000000" stroke="#000000" points="835.2477,-252.877 824.6861,-252.038 832.4192,-259.2802 835.2477,-252.877"/>
</g>
<!-- [root] aws_subnet.vpn&#45;1a -->
<g id="node6" class="node">
<title>[root] aws_subnet.vpn&#45;1a</title>
<polygon fill="none" stroke="#000000" points="641.5507,-252 518.1495,-252 518.1495,-216 641.5507,-216 641.5507,-252"/>
<text text-anchor="middle" x="579.8501" y="-229.8" font-family="Times,serif" font-size="14.00" fill="#000000">aws_subnet.vpn&#45;1a</text>
</g>
<!-- [root] aws_instance.server_vpn&#45;&gt;[root] aws_subnet.vpn&#45;1a -->
<g id="edge3" class="edge">
<title>[root] aws_instance.server_vpn&#45;&gt;[root] aws_subnet.vpn&#45;1a</title>
<path fill="none" stroke="#000000" d="M868.5695,-290.6425C804.3582,-278.0452 714.1848,-260.3545 651.7718,-248.11"/>
<polygon fill="#000000" stroke="#000000" points="652.1023,-244.6082 641.6156,-246.1175 650.7547,-251.4772 652.1023,-244.6082"/>
</g>
<!-- [root] var.ami -->
<g id="node12" class="node">
<title>[root] var.ami</title>
<ellipse fill="none" stroke="#000000" cx="946.8501" cy="-234" rx="58.9668" ry="18"/>
<text text-anchor="middle" x="946.8501" y="-229.8" font-family="Times,serif" font-size="14.00" fill="#000000">[root] var.ami</text>
</g>
<!-- [root] aws_instance.server_vpn&#45;&gt;[root] var.ami -->
<g id="edge4" class="edge">
<title>[root] aws_instance.server_vpn&#45;&gt;[root] var.ami</title>
<path fill="none" stroke="#000000" d="M946.8501,-287.8314C946.8501,-280.131 946.8501,-270.9743 946.8501,-262.4166"/>
<polygon fill="#000000" stroke="#000000" points="950.3502,-262.4132 946.8501,-252.4133 943.3502,-262.4133 950.3502,-262.4132"/>
</g>
<!-- [root] var.ec2_provisioning_ssh_connection_key_path -->
<g id="node13" class="node">
<title>[root] var.ec2_provisioning_ssh_connection_key_path</title>
<ellipse fill="none" stroke="#000000" cx="1225.8501" cy="-234" rx="202.8191" ry="18"/>
<text text-anchor="middle" x="1225.8501" y="-229.8" font-family="Times,serif" font-size="14.00" fill="#000000">[root] var.ec2_provisioning_ssh_connection_key_path</text>
</g>
<!-- [root] aws_instance.server_vpn&#45;&gt;[root] var.ec2_provisioning_ssh_connection_key_path -->
<g id="edge5" class="edge">
<title>[root] aws_instance.server_vpn&#45;&gt;[root] var.ec2_provisioning_ssh_connection_key_path</title>
<path fill="none" stroke="#000000" d="M1016.8935,-287.9243C1057.3907,-277.4734 1108.3727,-264.3167 1149.8403,-253.6154"/>
<polygon fill="#000000" stroke="#000000" points="1150.8116,-256.9795 1159.6198,-251.0917 1149.0624,-250.2016 1150.8116,-256.9795"/>
</g>
<!-- [root] var.ec2_ssh_key_name -->
<g id="node14" class="node">
<title>[root] var.ec2_ssh_key_name</title>
<ellipse fill="none" stroke="#000000" cx="1560.8501" cy="-234" rx="114.4674" ry="18"/>
<text text-anchor="middle" x="1560.8501" y="-229.8" font-family="Times,serif" font-size="14.00" fill="#000000">[root] var.ec2_ssh_key_name</text>
</g>
<!-- [root] aws_instance.server_vpn&#45;&gt;[root] var.ec2_ssh_key_name -->
<g id="edge6" class="edge">
<title>[root] aws_instance.server_vpn&#45;&gt;[root] var.ec2_ssh_key_name</title>
<path fill="none" stroke="#000000" d="M1025.1876,-298.2571C1122.183,-288.4691 1292.3945,-270.6356 1437.8501,-252 1447.6436,-250.7453 1457.8651,-249.3641 1468.0487,-247.9418"/>
<polygon fill="#000000" stroke="#000000" points="1468.7896,-251.372 1478.2024,-246.509 1467.8115,-244.4407 1468.7896,-251.372"/>
</g>
<!-- [root] aws_internet_gateway.vpn -->
<g id="node3" class="node">
<title>[root] aws_internet_gateway.vpn</title>
<polygon fill="none" stroke="#000000" points="462.1139,-324 297.5863,-324 297.5863,-288 462.1139,-288 462.1139,-324"/>
<text text-anchor="middle" x="379.8501" y="-301.8" font-family="Times,serif" font-size="14.00" fill="#000000">aws_internet_gateway.vpn</text>
</g>
<!-- [root] aws_vpc.vpn -->
<g id="node10" class="node">
<title>[root] aws_vpc.vpn</title>
<polygon fill="none" stroke="#000000" points="514.8378,-180 424.8624,-180 424.8624,-144 514.8378,-144 514.8378,-180"/>
<text text-anchor="middle" x="469.8501" y="-157.8" font-family="Times,serif" font-size="14.00" fill="#000000">aws_vpc.vpn</text>
</g>
<!-- [root] aws_internet_gateway.vpn&#45;&gt;[root] aws_vpc.vpn -->
<g id="edge7" class="edge">
<title>[root] aws_internet_gateway.vpn&#45;&gt;[root] aws_vpc.vpn</title>
<path fill="none" stroke="#000000" d="M391.2487,-287.7623C406.8699,-262.7682 435.0424,-217.6924 453.0746,-188.8409"/>
<polygon fill="#000000" stroke="#000000" points="456.2121,-190.4246 458.5441,-180.0896 450.2761,-186.7146 456.2121,-190.4246"/>
</g>
<!-- [root] aws_route.internet_access_vpn -->
<g id="node4" class="node">
<title>[root] aws_route.internet_access_vpn</title>
<polygon fill="none" stroke="#000000" points="474.8995,-396 284.8007,-396 284.8007,-360 474.8995,-360 474.8995,-396"/>
<text text-anchor="middle" x="379.8501" y="-373.8" font-family="Times,serif" font-size="14.00" fill="#000000">aws_route.internet_access_vpn</text>
</g>
<!-- [root] aws_route.internet_access_vpn&#45;&gt;[root] aws_internet_gateway.vpn -->
<g id="edge8" class="edge">
<title>[root] aws_route.internet_access_vpn&#45;&gt;[root] aws_internet_gateway.vpn</title>
<path fill="none" stroke="#000000" d="M379.8501,-359.8314C379.8501,-352.131 379.8501,-342.9743 379.8501,-334.4166"/>
<polygon fill="#000000" stroke="#000000" points="383.3502,-334.4132 379.8501,-324.4133 376.3502,-334.4133 383.3502,-334.4132"/>
</g>
<!-- [root] aws_security_group.vpn_sg&#45;&gt;[root] aws_vpc.vpn -->
<g id="edge9" class="edge">
<title>[root] aws_security_group.vpn_sg&#45;&gt;[root] aws_vpc.vpn</title>
<path fill="none" stroke="#000000" d="M705.0199,-215.9243C648.7642,-203.0249 574.5315,-186.0034 524.6458,-174.5646"/>
<polygon fill="#000000" stroke="#000000" points="525.2252,-171.1067 514.6959,-172.2831 523.6607,-177.9296 525.2252,-171.1067"/>
</g>
<!-- [root] var.authorized_ips_range -->
<g id="node15" class="node">
<title>[root] var.authorized_ips_range</title>
<ellipse fill="none" stroke="#000000" cx="688.8501" cy="-162" rx="121.6917" ry="18"/>
<text text-anchor="middle" x="688.8501" y="-157.8" font-family="Times,serif" font-size="14.00" fill="#000000">[root] var.authorized_ips_range</text>
</g>
<!-- [root] aws_security_group.vpn_sg&#45;&gt;[root] var.authorized_ips_range -->
<g id="edge10" class="edge">
<title>[root] aws_security_group.vpn_sg&#45;&gt;[root] var.authorized_ips_range</title>
<path fill="none" stroke="#000000" d="M759.8776,-215.8314C747.9739,-206.8096 733.4328,-195.789 720.615,-186.0745"/>
<polygon fill="#000000" stroke="#000000" points="722.5696,-183.1642 712.4858,-179.9134 718.3415,-188.743 722.5696,-183.1642"/>
</g>
<!-- [root] aws_subnet.vpn&#45;1a&#45;&gt;[root] aws_vpc.vpn -->
<g id="edge11" class="edge">
<title>[root] aws_subnet.vpn&#45;1a&#45;&gt;[root] aws_vpc.vpn</title>
<path fill="none" stroke="#000000" d="M552.0925,-215.8314C538.1531,-206.7074 521.0903,-195.539 506.127,-185.7449"/>
<polygon fill="#000000" stroke="#000000" points="507.8827,-182.711 497.5989,-180.1628 504.0491,-188.5679 507.8827,-182.711"/>
</g>
<!-- [root] aws_subnet.vpn&#45;1b -->
<g id="node7" class="node">
<title>[root] aws_subnet.vpn&#45;1b</title>
<polygon fill="none" stroke="#000000" points="618.3374,-396 493.3628,-396 493.3628,-360 618.3374,-360 618.3374,-396"/>
<text text-anchor="middle" x="555.8501" y="-373.8" font-family="Times,serif" font-size="14.00" fill="#000000">aws_subnet.vpn&#45;1b</text>
</g>
<!-- [root] aws_subnet.vpn&#45;1b&#45;&gt;[root] aws_vpc.vpn -->
<g id="edge12" class="edge">
<title>[root] aws_subnet.vpn&#45;1b&#45;&gt;[root] aws_vpc.vpn</title>
<path fill="none" stroke="#000000" d="M548.6657,-359.9555C533.6157,-322.1556 498.6962,-234.4506 480.8216,-189.5564"/>
<polygon fill="#000000" stroke="#000000" points="484.0254,-188.1411 477.0745,-180.1451 477.5219,-190.7305 484.0254,-188.1411"/>
</g>
<!-- [root] aws_subnet.vpn&#45;1c -->
<g id="node8" class="node">
<title>[root] aws_subnet.vpn&#45;1c</title>
<polygon fill="none" stroke="#000000" points="123.5507,-396 .1495,-396 .1495,-360 123.5507,-360 123.5507,-396"/>
<text text-anchor="middle" x="61.8501" y="-373.8" font-family="Times,serif" font-size="14.00" fill="#000000">aws_subnet.vpn&#45;1c</text>
</g>
<!-- [root] aws_subnet.vpn&#45;1c&#45;&gt;[root] aws_vpc.vpn -->
<g id="edge13" class="edge">
<title>[root] aws_subnet.vpn&#45;1c&#45;&gt;[root] aws_vpc.vpn</title>
<path fill="none" stroke="#000000" d="M88.7189,-359.915C136.4794,-328.234 239.8884,-261.7255 332.8501,-216 359.3964,-202.9426 389.9358,-190.6562 415.4344,-181.1118"/>
<polygon fill="#000000" stroke="#000000" points="416.7786,-184.3464 424.9414,-177.5921 414.3482,-177.7818 416.7786,-184.3464"/>
</g>
<!-- [root] aws_subnet.vpn&#45;1d -->
<g id="node9" class="node">
<title>[root] aws_subnet.vpn&#45;1d</title>
<polygon fill="none" stroke="#000000" points="266.3374,-396 141.3628,-396 141.3628,-360 266.3374,-360 266.3374,-396"/>
<text text-anchor="middle" x="203.8501" y="-373.8" font-family="Times,serif" font-size="14.00" fill="#000000">aws_subnet.vpn&#45;1d</text>
</g>
<!-- [root] aws_subnet.vpn&#45;1d&#45;&gt;[root] aws_vpc.vpn -->
<g id="edge14" class="edge">
<title>[root] aws_subnet.vpn&#45;1d&#45;&gt;[root] aws_vpc.vpn</title>
<path fill="none" stroke="#000000" d="M219.1445,-359.6988C235.4387,-340.7275 262.4698,-310.7225 288.8501,-288 334.9097,-248.3268 393.4584,-209.3985 431.2879,-185.5514"/>
<polygon fill="#000000" stroke="#000000" points="433.3522,-188.3884 439.9695,-180.1142 429.6367,-182.4558 433.3522,-188.3884"/>
</g>
<!-- [root] provider.aws -->
<g id="node11" class="node">
<title>[root] provider.aws</title>
<polygon fill="none" stroke="#000000" points="469.8501,-108 391.2418,-90 469.8501,-72 548.4584,-90 469.8501,-108"/>
<text text-anchor="middle" x="469.8501" y="-85.8" font-family="Times,serif" font-size="14.00" fill="#000000">provider.aws</text>
</g>
<!-- [root] aws_vpc.vpn&#45;&gt;[root] provider.aws -->
<g id="edge15" class="edge">
<title>[root] aws_vpc.vpn&#45;&gt;[root] provider.aws</title>
<path fill="none" stroke="#000000" d="M469.8501,-143.8314C469.8501,-136.131 469.8501,-126.9743 469.8501,-118.4166"/>
<polygon fill="#000000" stroke="#000000" points="473.3502,-118.4132 469.8501,-108.4133 466.3502,-118.4133 473.3502,-118.4132"/>
</g>
<!-- [root] var.region -->
<g id="node20" class="node">
<title>[root] var.region</title>
<ellipse fill="none" stroke="#000000" cx="469.8501" cy="-18" rx="68.1287" ry="18"/>
<text text-anchor="middle" x="469.8501" y="-13.8" font-family="Times,serif" font-size="14.00" fill="#000000">[root] var.region</text>
</g>
<!-- [root] provider.aws&#45;&gt;[root] var.region -->
<g id="edge30" class="edge">
<title>[root] provider.aws&#45;&gt;[root] var.region</title>
<path fill="none" stroke="#000000" d="M469.8501,-71.8314C469.8501,-64.131 469.8501,-54.9743 469.8501,-46.4166"/>
<polygon fill="#000000" stroke="#000000" points="473.3502,-46.4132 469.8501,-36.4133 466.3502,-46.4133 473.3502,-46.4132"/>
</g>
<!-- [root] meta.count&#45;boundary (count boundary fixup) -->
<g id="node16" class="node">
<title>[root] meta.count&#45;boundary (count boundary fixup)</title>
<ellipse fill="none" stroke="#000000" cx="624.8501" cy="-450" rx="191.6931" ry="18"/>
<text text-anchor="middle" x="624.8501" y="-445.8" font-family="Times,serif" font-size="14.00" fill="#000000">[root] meta.count&#45;boundary (count boundary fixup)</text>
</g>
<!-- [root] meta.count&#45;boundary (count boundary fixup)&#45;&gt;[root] aws_eip.server_vpn -->
<g id="edge16" class="edge">
<title>[root] meta.count&#45;boundary (count boundary fixup)&#45;&gt;[root] aws_eip.server_vpn</title>
<path fill="none" stroke="#000000" d="M643.7758,-431.8314C652.8358,-423.1337 663.831,-412.5783 673.6766,-403.1265"/>
<polygon fill="#000000" stroke="#000000" points="676.1405,-405.613 680.9305,-396.1628 671.2927,-400.5633 676.1405,-405.613"/>
</g>
<!-- [root] meta.count&#45;boundary (count boundary fixup)&#45;&gt;[root] aws_route.internet_access_vpn -->
<g id="edge17" class="edge">
<title>[root] meta.count&#45;boundary (count boundary fixup)&#45;&gt;[root] aws_route.internet_access_vpn</title>
<path fill="none" stroke="#000000" d="M566.4778,-432.8457C531.7879,-422.6511 487.543,-409.6485 450.8407,-398.8625"/>
<polygon fill="#000000" stroke="#000000" points="451.7754,-395.4893 441.1942,-396.0277 449.8016,-402.2053 451.7754,-395.4893"/>
</g>
<!-- [root] meta.count&#45;boundary (count boundary fixup)&#45;&gt;[root] aws_subnet.vpn&#45;1b -->
<g id="edge18" class="edge">
<title>[root] meta.count&#45;boundary (count boundary fixup)&#45;&gt;[root] aws_subnet.vpn&#45;1b</title>
<path fill="none" stroke="#000000" d="M607.4385,-431.8314C599.3291,-423.3694 589.5345,-413.1489 580.6681,-403.8971"/>
<polygon fill="#000000" stroke="#000000" points="582.9422,-401.2115 573.4961,-396.4133 577.8883,-406.0549 582.9422,-401.2115"/>
</g>
<!-- [root] meta.count&#45;boundary (count boundary fixup)&#45;&gt;[root] aws_subnet.vpn&#45;1c -->
<g id="edge19" class="edge">
<title>[root] meta.count&#45;boundary (count boundary fixup)&#45;&gt;[root] aws_subnet.vpn&#45;1c</title>
<path fill="none" stroke="#000000" d="M489.3485,-437.26C373.1055,-425.9566 213.3942,-409.4427 133.9057,-396.0079"/>
<polygon fill="#000000" stroke="#000000" points="134.1496,-392.4973 123.6954,-394.2177 132.9407,-399.3922 134.1496,-392.4973"/>
</g>
<!-- [root] meta.count&#45;boundary (count boundary fixup)&#45;&gt;[root] aws_subnet.vpn&#45;1d -->
<g id="edge20" class="edge">
<title>[root] meta.count&#45;boundary (count boundary fixup)&#45;&gt;[root] aws_subnet.vpn&#45;1d</title>
<path fill="none" stroke="#000000" d="M512.795,-435.3196C446.6699,-426.0231 361.1959,-412.9134 276.0531,-395.9407"/>
<polygon fill="#000000" stroke="#000000" points="276.7055,-392.5019 266.2117,-393.9612 275.3251,-399.3645 276.7055,-392.5019"/>
</g>
<!-- [root] output.authorized_ips -->
<g id="node17" class="node">
<title>[root] output.authorized_ips</title>
<ellipse fill="none" stroke="#000000" cx="705.8501" cy="-306" rx="109.1565" ry="18"/>
<text text-anchor="middle" x="705.8501" y="-301.8" font-family="Times,serif" font-size="14.00" fill="#000000">[root] output.authorized_ips</text>
</g>
<!-- [root] meta.count&#45;boundary (count boundary fixup)&#45;&gt;[root] output.authorized_ips -->
<g id="edge21" class="edge">
<title>[root] meta.count&#45;boundary (count boundary fixup)&#45;&gt;[root] output.authorized_ips</title>
<path fill="none" stroke="#000000" d="M693.3477,-433.1723C727.2504,-423.3154 763.0114,-410.063 772.8501,-396 782.0221,-382.8899 779.7549,-374.4334 772.8501,-360 766.9932,-347.7571 756.8561,-337.4033 746.214,-329.1395"/>
<polygon fill="#000000" stroke="#000000" points="748.1949,-326.2527 738.0401,-323.2309 744.094,-331.9257 748.1949,-326.2527"/>
</g>
<!-- [root] output.ec2_vpn_public_ip -->
<g id="node18" class="node">
<title>[root] output.ec2_vpn_public_ip</title>
<ellipse fill="none" stroke="#000000" cx="944.8501" cy="-378" rx="125.1006" ry="18"/>
<text text-anchor="middle" x="944.8501" y="-373.8" font-family="Times,serif" font-size="14.00" fill="#000000">[root] output.ec2_vpn_public_ip</text>
</g>
<!-- [root] meta.count&#45;boundary (count boundary fixup)&#45;&gt;[root] output.ec2_vpn_public_ip -->
<g id="edge22" class="edge">
<title>[root] meta.count&#45;boundary (count boundary fixup)&#45;&gt;[root] output.ec2_vpn_public_ip</title>
<path fill="none" stroke="#000000" d="M699.0688,-433.3008C749.5251,-421.9481 816.1401,-406.9597 867.2897,-395.4511"/>
<polygon fill="#000000" stroke="#000000" points="868.3163,-398.8077 877.3041,-393.1979 866.7797,-391.9784 868.3163,-398.8077"/>
</g>
<!-- [root] output.authorized_ips&#45;&gt;[root] var.authorized_ips_range -->
<g id="edge23" class="edge">
<title>[root] output.authorized_ips&#45;&gt;[root] var.authorized_ips_range</title>
<path fill="none" stroke="#000000" d="M698.6062,-287.8366C694.8789,-277.513 690.7313,-264.2403 688.8501,-252 685.6903,-231.4406 685.8169,-207.926 686.6662,-190.0893"/>
<polygon fill="#000000" stroke="#000000" points="690.1634,-190.2379 687.248,-180.0521 683.1751,-189.8328 690.1634,-190.2379"/>
</g>
<!-- [root] output.ec2_vpn_public_ip&#45;&gt;[root] aws_instance.server_vpn -->
<g id="edge24" class="edge">
<title>[root] output.ec2_vpn_public_ip&#45;&gt;[root] aws_instance.server_vpn</title>
<path fill="none" stroke="#000000" d="M945.3548,-359.8314C945.5687,-352.131 945.823,-342.9743 946.0607,-334.4166"/>
<polygon fill="#000000" stroke="#000000" points="949.5595,-334.5066 946.3386,-324.4133 942.5622,-334.3122 949.5595,-334.5066"/>
</g>
<!-- [root] provider.aws (close) -->
<g id="node19" class="node">
<title>[root] provider.aws (close)</title>
<ellipse fill="none" stroke="#000000" cx="310.8501" cy="-450" rx="104.3276" ry="18"/>
<text text-anchor="middle" x="310.8501" y="-445.8" font-family="Times,serif" font-size="14.00" fill="#000000">[root] provider.aws (close)</text>
</g>
<!-- [root] provider.aws (close)&#45;&gt;[root] aws_eip.server_vpn -->
<g id="edge25" class="edge">
<title>[root] provider.aws (close)&#45;&gt;[root] aws_eip.server_vpn</title>
<path fill="none" stroke="#000000" d="M386.9997,-437.6398C460.814,-425.5483 568.6809,-407.5606 626.0968,-396.0508"/>
<polygon fill="#000000" stroke="#000000" points="627.1162,-399.4148 636.2109,-393.98 625.7121,-392.5571 627.1162,-399.4148"/>
</g>
<!-- [root] provider.aws (close)&#45;&gt;[root] aws_route.internet_access_vpn -->
<g id="edge26" class="edge">
<title>[root] provider.aws (close)&#45;&gt;[root] aws_route.internet_access_vpn</title>
<path fill="none" stroke="#000000" d="M327.9063,-432.2022C336.2196,-423.5275 346.3667,-412.9391 355.4793,-403.4304"/>
<polygon fill="#000000" stroke="#000000" points="358.1187,-405.7347 362.5109,-396.0931 353.0648,-400.8913 358.1187,-405.7347"/>
</g>
<!-- [root] provider.aws (close)&#45;&gt;[root] aws_subnet.vpn&#45;1b -->
<g id="edge27" class="edge">
<title>[root] provider.aws (close)&#45;&gt;[root] aws_subnet.vpn&#45;1b</title>
<path fill="none" stroke="#000000" d="M363.7098,-434.4657C399.1126,-424.0616 446.1357,-410.2426 484.8013,-398.8796"/>
<polygon fill="#000000" stroke="#000000" points="485.8319,-402.2248 494.4394,-396.0472 483.8582,-395.5089 485.8319,-402.2248"/>
</g>
<!-- [root] provider.aws (close)&#45;&gt;[root] aws_subnet.vpn&#45;1c -->
<g id="edge28" class="edge">
<title>[root] provider.aws (close)&#45;&gt;[root] aws_subnet.vpn&#45;1c</title>
<path fill="none" stroke="#000000" d="M257.1274,-434.4657C221.0148,-424.0235 173.0054,-410.1413 133.6273,-398.7549"/>
<polygon fill="#000000" stroke="#000000" points="134.3931,-395.333 123.8144,-395.9174 132.4486,-402.0575 134.3931,-395.333"/>
</g>
<!-- [root] provider.aws (close)&#45;&gt;[root] aws_subnet.vpn&#45;1d -->
<g id="edge29" class="edge">
<title>[root] provider.aws (close)&#45;&gt;[root] aws_subnet.vpn&#45;1d</title>
<path fill="none" stroke="#000000" d="M284.675,-432.3868C271.0211,-423.1992 254.1215,-411.8275 239.3109,-401.8615"/>
<polygon fill="#000000" stroke="#000000" points="241.1229,-398.8622 230.8723,-396.1832 237.2149,-404.6698 241.1229,-398.8622"/>
</g>
<!-- [root] provisioner.file (close) -->
<g id="node21" class="node">
<title>[root] provisioner.file (close)</title>
<ellipse fill="none" stroke="#000000" cx="946.8501" cy="-450" rx="112.0625" ry="18"/>
<text text-anchor="middle" x="946.8501" y="-445.8" font-family="Times,serif" font-size="14.00" fill="#000000">[root] provisioner.file (close)</text>
</g>
<!-- [root] provisioner.file (close)&#45;&gt;[root] aws_instance.server_vpn -->
<g id="edge31" class="edge">
<title>[root] provisioner.file (close)&#45;&gt;[root] aws_instance.server_vpn</title>
<path fill="none" stroke="#000000" d="M1020.8655,-436.4597C1043.2697,-428.5225 1065.4631,-415.9404 1078.8501,-396 1087.7683,-382.716 1087.7683,-373.284 1078.8501,-360 1068.3117,-344.3027 1052.316,-333.1654 1035.0562,-325.2643"/>
<polygon fill="#000000" stroke="#000000" points="1035.9395,-321.8394 1025.364,-321.1993 1033.2321,-328.2947 1035.9395,-321.8394"/>
</g>
<!-- [root] provisioner.remote&#45;exec (close) -->
<g id="node22" class="node">
<title>[root] provisioner.remote&#45;exec (close)</title>
<ellipse fill="none" stroke="#000000" cx="1220.8501" cy="-450" rx="144.3512" ry="18"/>
<text text-anchor="middle" x="1220.8501" y="-445.8" font-family="Times,serif" font-size="14.00" fill="#000000">[root] provisioner.remote&#45;exec (close)</text>
</g>
<!-- [root] provisioner.remote&#45;exec (close)&#45;&gt;[root] aws_instance.server_vpn -->
<g id="edge32" class="edge">
<title>[root] provisioner.remote&#45;exec (close)&#45;&gt;[root] aws_instance.server_vpn</title>
<path fill="none" stroke="#000000" d="M1199.9191,-432.1364C1176.009,-412.4174 1135.1034,-380.7288 1095.8501,-360 1071.3634,-347.0691 1043.1011,-335.9594 1017.8165,-327.2375"/>
<polygon fill="#000000" stroke="#000000" points="1018.88,-323.9024 1008.2857,-324.0128 1016.6365,-330.5332 1018.88,-323.9024"/>
</g>
<!-- [root] root -->
<g id="node23" class="node">
<title>[root] root</title>
<ellipse fill="none" stroke="#000000" cx="785.8501" cy="-522" rx="46.8976" ry="18"/>
<text text-anchor="middle" x="785.8501" y="-517.8" font-family="Times,serif" font-size="14.00" fill="#000000">[root] root</text>
</g>
<!-- [root] root&#45;&gt;[root] meta.count&#45;boundary (count boundary fixup) -->
<g id="edge33" class="edge">
<title>[root] root&#45;&gt;[root] meta.count&#45;boundary (count boundary fixup)</title>
<path fill="none" stroke="#000000" d="M755.1883,-508.2879C732.0917,-497.959 699.9712,-483.5945 673.3966,-471.7102"/>
<polygon fill="#000000" stroke="#000000" points="674.8096,-468.5082 664.252,-467.6207 671.9519,-474.8983 674.8096,-468.5082"/>
</g>
<!-- [root] root&#45;&gt;[root] provider.aws (close) -->
<g id="edge34" class="edge">
<title>[root] root&#45;&gt;[root] provider.aws (close)</title>
<path fill="none" stroke="#000000" d="M742.0864,-515.6142C674.0049,-505.648 538.6173,-485.7003 423.8501,-468 415.2912,-466.68 406.3705,-465.2876 397.4594,-463.8857"/>
<polygon fill="#000000" stroke="#000000" points="397.8456,-460.4034 387.4223,-462.3023 396.7547,-467.3179 397.8456,-460.4034"/>
</g>
<!-- [root] root&#45;&gt;[root] provisioner.file (close) -->
<g id="edge35" class="edge">
<title>[root] root&#45;&gt;[root] provisioner.file (close)</title>
<path fill="none" stroke="#000000" d="M816.5119,-508.2879C840.0165,-497.7765 872.8669,-483.0857 899.7069,-471.0827"/>
<polygon fill="#000000" stroke="#000000" points="901.2248,-474.238 908.9247,-466.9604 898.3671,-467.8479 901.2248,-474.238"/>
</g>
<!-- [root] root&#45;&gt;[root] provisioner.remote&#45;exec (close) -->
<g id="edge36" class="edge">
<title>[root] root&#45;&gt;[root] provisioner.remote&#45;exec (close)</title>
<path fill="none" stroke="#000000" d="M829.1499,-514.8331C897.366,-503.5422 1031.5593,-481.3309 1123.6985,-466.0803"/>
<polygon fill="#000000" stroke="#000000" points="1124.3035,-469.5278 1133.5977,-464.4418 1123.1604,-462.6218 1124.3035,-469.5278"/>
</g>
</g>
</svg>
